<?xml version="1.0" encoding="utf-8"?>
<!-- Generator: Adobe Illustrator 26.0.2, SVG Export Plug-In . SVG Version: 6.00 Build 0)  -->
<svg version="1.2" baseProfile="tiny" id="Layer_1" xmlns="http://www.w3.org/2000/svg" xmlns:xlink="http://www.w3.org/1999/xlink"
	 x="0px" y="0px" viewBox="0 0 792 612" overflow="visible" xml:space="preserve">
<circle fill="#3E5544" cx="396" cy="306.24" r="274.18"/>
<g>
	<path fill="#FFFFFF" d="M517.89,406.46c3.87,8.7,10,16.66,18.39,23.86c8.39,7.21,17.45,13.03,27.16,17.47
		c9.71,4.44,18.13,6.66,25.25,6.66l-52.08-0.13h-37.18c-0.53,0-0.92,0-1.19,0l-66.58,0.13c7.29,0,15.09-1.43,23.4-4.28
		c8.31-2.86,15.45-7.27,21.42-13.25c5.98-5.98,9.4-13.62,10.28-22.94L458.3,341.2l-77.12-197.49c-0.62,1.85-1.27,3.69-1.98,5.54
		c-0.44,1.32-0.92,2.68-1.45,4.09c-0.53,1.67-1.05,3.34-1.58,5.01c-0.97,2.64-1.89,5.27-2.77,7.91c-3.96,11.6-7.96,23.25-12,34.94
		c-3.96,11.6-7.91,23.2-11.87,34.8c-5.45,16-10.9,31.99-16.35,47.99c-5.54,16.17-11.07,32.3-16.61,48.38
		c-0.97,2.9-1.93,5.85-2.9,8.83c-8.26,24.08-16.52,48.21-24.79,72.38c0.7,9.41,4.04,17.14,10.02,23.2
		c5.98,6.06,13.16,10.53,21.56,13.38c8.39,2.86,16.24,4.28,23.53,4.28l-76.73-0.13l-52.34,0.13c7.21,0,15.56-1.65,25.05-4.94
		c9.49-3.29,18.24-8.02,26.24-14.17c8-6.15,13.75-13.62,17.27-22.41c0.18-0.53,0.35-1.05,0.53-1.58c0.35-0.97,0.7-1.98,1.05-3.03
		c5.1-14.77,10.15-29.53,15.16-44.3c5.1-14.85,10.15-29.66,15.16-44.43c5.62-16.43,11.25-32.87,16.88-49.31
		c5.27-15.29,10.5-30.59,15.69-45.88c3.69-10.9,7.43-21.8,11.21-32.7c3.51-10.46,7.07-20.92,10.68-31.38
		c0.61-1.85,1.27-3.73,1.98-5.67c0.44-1.4,0.92-2.81,1.45-4.22c0-0.18,0.04-0.31,0.13-0.4c0-0.09,0-0.18,0-0.26
		c0-0.09,0-0.18,0-0.26c0-0.35,0-0.66,0-0.92c-0.09-0.44-0.18-0.88-0.26-1.32c-0.18-1.85-0.48-3.65-0.92-5.41
		c-2.73-10.19-7.84-18.5-15.36-24.92c-7.51-6.41-16.2-9.62-26.04-9.62h48.65c0.09,0,0.18,0,0.26,0h0.13h21.09L517.1,404.48
		c0,0.09,0.04,0.13,0.13,0.13v0.13L517.89,406.46z M387.5,302.97c0,10.55,1.89,19.56,5.67,27.03c3.78,7.47,8.35,11.21,13.71,11.21
		c-5.36,0-9.93,3.71-13.71,11.14c-3.78,7.43-5.67,16.41-5.67,26.96c0-10.55-1.89-19.53-5.67-26.96
		c-3.78-7.43-8.35-11.14-13.71-11.14c5.36,0,9.93-3.73,13.71-11.21C385.61,322.52,387.5,313.51,387.5,302.97z"/>
</g>
<g>
</g>
<g>
</g>
<g>
</g>
<g>
</g>
<g>
</g>
<g>
</g>
</svg>
